<svg width="56" height="56" viewBox="0 0 56 56" fill="none" xmlns="http://www.w3.org/2000/svg">
<g filter="url(#filter0_d_363_30)">
<g clip-path="url(#clip0_363_30)">
<rect x="48" width="48" height="48" rx="24" transform="rotate(90 48 0)" fill="white"/>
<path d="M17.64 23.16C17.4 23.4 17.28 23.68 17.28 24C17.28 24.32 17.4 24.6 17.64 24.84L24.36 31.56C24.76 31.96 25.2 32.06 25.68 31.86C26.16 31.66 26.4 31.28 26.4 30.72L26.4 17.28C26.4 16.72 26.16 16.34 25.68 16.14C25.2 15.94 24.76 16.04 24.36 16.44L17.64 23.16ZM0 24C0 20.68 0.630398 17.56 1.8912 14.64C3.1504 11.72 4.86 9.18 7.02 7.02C9.18 4.86 11.72 3.1504 14.64 1.8912C17.56 0.6304 20.68 0 24 0C27.32 0 30.44 0.6304 33.36 1.8912C36.28 3.1504 38.82 4.86 40.98 7.02C43.14 9.18 44.8504 11.72 46.1112 14.64C47.3704 17.56 48 20.68 48 24C48 27.32 47.3704 30.44 46.1112 33.36C44.8504 36.28 43.14 38.82 40.98 40.98C38.82 43.14 36.28 44.8496 33.36 46.1088C30.44 47.3696 27.32 48 24 48C20.68 48 17.56 47.3696 14.64 46.1088C11.72 44.8496 9.18 43.14 7.02 40.98C4.86 38.82 3.1504 36.28 1.8912 33.36C0.630398 30.44 0 27.32 0 24ZM4.8 24C4.8 29.32 6.6696 33.8504 10.4088 37.5912C14.1496 41.3304 18.68 43.2 24 43.2C29.32 43.2 33.8504 41.3304 37.5912 37.5912C41.3304 33.8504 43.2 29.32 43.2 24C43.2 18.68 41.3304 14.1504 37.5912 10.4112C33.8504 6.6704 29.32 4.8 24 4.8C18.68 4.8 14.1496 6.6704 10.4088 10.4112C6.6696 14.1504 4.8 18.68 4.8 24Z" fill="#E931CC"/>
</g>
</g>
<defs>
<filter id="filter0_d_363_30" x="0" y="0" width="56" height="56" filterUnits="userSpaceOnUse" color-interpolation-filters="sRGB">
<feFlood flood-opacity="0" result="BackgroundImageFix"/>
<feColorMatrix in="SourceAlpha" type="matrix" values="0 0 0 0 0 0 0 0 0 0 0 0 0 0 0 0 0 0 127 0" result="hardAlpha"/>
<feOffset dx="4" dy="4"/>
<feGaussianBlur stdDeviation="2"/>
<feComposite in2="hardAlpha" operator="out"/>
<feColorMatrix type="matrix" values="0 0 0 0 0 0 0 0 0 0 0 0 0 0 0 0 0 0 1 0"/>
<feBlend mode="normal" in2="BackgroundImageFix" result="effect1_dropShadow_363_30"/>
<feBlend mode="normal" in="SourceGraphic" in2="effect1_dropShadow_363_30" result="shape"/>
</filter>
<clipPath id="clip0_363_30">
<rect x="48" width="48" height="48" rx="24" transform="rotate(90 48 0)" fill="white"/>
</clipPath>
</defs>
</svg>
