<svg width="75" height="85" viewBox="0 0 75 85" fill="none" xmlns="http://www.w3.org/2000/svg">
<path fill-rule="evenodd" clip-rule="evenodd" d="M74.0734 6.38889C74.0734 4.69443 73.4947 3.06933 72.4645 1.87098C71.4341 0.672993 70.0366 0 68.5795 0C67.1224 0 65.725 0.672993 64.6945 1.87098L37.0699 33.9959L9.37891 1.79382C8.34252 0.629788 6.95446 -0.014314 5.51367 0.000245655C4.07288 0.0148053 2.69465 0.686854 1.67582 1.87166C0.656989 3.05647 0.0790771 4.65922 0.066557 6.33473C0.054037 8.01023 0.607911 9.62443 1.60888 10.8296L28.8095 42.4614L1.60888 74.0932C0.578716 75.2915 0 76.9166 0 78.6111C0 80.3056 0.578716 81.9307 1.60888 83.129C2.63936 84.327 4.0368 85 5.49389 85C6.95099 85 8.34843 84.327 9.37891 83.129L37.0035 51.0041L64.6945 83.2062C65.7309 84.3702 67.119 85.0143 68.5598 84.9998C70.0005 84.9852 71.3788 84.3131 72.3976 83.1283C73.4164 81.9435 73.9943 80.3408 74.0069 78.6653C74.0194 76.9898 73.4655 75.3756 72.4645 74.1704L45.264 42.5386L72.4645 10.9068C73.4947 9.70845 74.0734 8.08336 74.0734 6.38889Z" fill="white"/>
</svg>
