<svg width="18" height="18" viewBox="0 0 18 18" fill="none" xmlns="http://www.w3.org/2000/svg">
<path d="M2.61308 11.5936C1.73348 11.155 1 10.8773 1 9.87211C1 8.96161 1.31202 8.39677 1.72546 7.59878C2.05006 6.97224 2.96569 6.97584 3.57325 7.01397C5.06736 7.10776 6.37994 7.11708 6.86342 8.60366C7.03288 9.12471 6.99144 9.67093 6.99144 10.2098C6.99144 10.5977 7.05121 11.0397 6.85488 11.3959C6.65203 11.7639 6.3213 11.9307 5.89472 11.9601C5.23971 12.0053 4.50917 12.0238 3.85063 11.9519C3.18696 11.8794 2.91003 11.6257 2.38264 11.3712" stroke="#6AFCC7" stroke-width="0.5" stroke-linecap="round"/>
<path d="M1.01271 9.59272C1.01271 9.33983 0.860043 9.0744 1.61277 9.02036C2.07637 8.98708 3.38387 8.96764 3.63793 9.18653C3.81553 9.33953 3.95277 9.58321 3.99689 9.75427C4.01576 9.82743 3.95075 9.95248 3.74509 9.96429C3.21059 9.99499 2.20837 10.0359 1.71992 9.94121C1.07635 9.81646 1.20559 9.45713 1.20559 9.21884" stroke="#6AFCC7" stroke-width="0.5" stroke-linecap="round"/>
<path d="M7 10C7.66997 10 8.36922 10 9 10" stroke="#6AFCC7" stroke-width="0.5" stroke-linecap="round"/>
<path d="M10.0101 12.8424C9.71548 13.0891 9.22956 11.841 9.1381 11.5675C9.02071 11.2165 8.94262 10.6403 9.05332 10.2709C9.21426 9.7339 9.77028 9.27141 10.2372 9.19163C10.8707 9.08336 11.7209 8.72695 12.2445 9.39807C12.5488 9.78806 12.7691 10.2979 12.8561 10.8069C12.9318 11.2492 13.074 11.4919 12.953 11.9623C12.8867 12.2203 12.6907 12.3571 12.4928 12.4512C12.1481 12.6152 11.7642 12.8118 11.4089 12.9293C10.8925 13.1002 10.3139 12.9076 9.79209 12.9076" stroke="#6AFCC7" stroke-width="0.5" stroke-linecap="round"/>
<path d="M11.2359 10.1547C11.007 10.5407 10.9206 11.2313 11.0854 11.7012C11.2091 12.0542 11.9526 12.1442 11.9918 11.6969C12.0471 11.0655 11.8193 10.2401 11.3985 10" stroke="#6AFCC7" stroke-width="0.5" stroke-linecap="round"/>
<path d="M1.23881 6.30385C1.16458 6.32245 1.06244 6.37241 1.01438 6.45855C0.921124 6.62567 1.30663 6.33165 1.44721 6.24859C1.96657 5.94174 2.51492 6.00549 3.07035 6.00549C3.76377 6.00549 4.43292 6.1356 5.09826 6.40882C5.42756 6.54405 5.69251 6.8587 6 7" stroke="#6AFCC7" stroke-width="0.5" stroke-linecap="round"/>
<path d="M9 7.15526C9.46128 7.15526 9.89992 7.01163 10.3572 7.00153C11.1293 6.98448 11.8266 7.11148 12.5865 7.30045C13.067 7.41993 13.3336 7.88781 13.7046 8.27406C13.9298 8.50843 13.9468 8.64473 14 9" stroke="#6AFCC7" stroke-width="0.5" stroke-linecap="round"/>
<path d="M1.01362 6.9239C1.01362 6.69069 0.978538 6.34082 1.02098 6.12109C1.12201 5.59798 1.81128 5.53504 2.05756 5.4913C2.6651 5.38339 3.26398 5.12424 3.87342 5.06221C4.35342 5.01336 5.0576 4.82105 5.42095 5.50514C5.59964 5.84158 5.75982 6.22916 5.90983 6.61247C6.16567 7.26618 5.81207 6.96983 5.65253 6.61939C5.43861 6.14951 5.10888 5.87658 4.78871 5.78889C4.1678 5.61885 3.64971 5.42901 3.01695 5.42901C2.46962 5.42901 1.9058 5.35278 1.35915 5.42901C1.27344 5.44097 1.02684 5.86897 1.04303 6.05188C1.07214 6.3807 1.64482 6.09407 1.75614 6.0242C2.2635 5.70579 1.62326 5.89461 1.41061 5.99652C1.13701 6.12764 1.96331 5.7738 2.234 5.6228C2.69404 5.36616 3.18297 5.36835 3.66022 5.23523C4.37313 5.03638 4.86878 5.34524 5.51284 5.92731" stroke="#6AFCC7" stroke-width="0.5" stroke-linecap="round"/>
<path d="M9 6.70089C9.04988 5.9559 9.78461 6.07336 10.0937 6.07336C10.7462 6.07336 11.6353 5.8288 12.2411 6.23273C12.4345 6.36175 12.791 6.35101 12.948 6.54152C13.1106 6.73886 13.2376 7.02241 13.4081 7.21886C13.597 7.43644 13.7566 7.70954 13.9216 7.95596C14.0444 8.13941 13.9878 8.63322 13.9816 8.87236C13.9713 9.27525 13.6921 8.60562 13.6349 8.49384C13.3771 7.99039 13.2636 7.47062 12.8012 7.3085C12.0332 7.03916 11.2346 6.84165 10.4571 6.70089C10.0751 6.63172 9.71531 6.61124 9.33011 6.61124C8.54173 6.61124 9.9918 6.57508 10.1771 6.46681C10.5395 6.25495 10.9297 6.07336 11.3241 6.07336C11.4415 6.07336 13.0886 6.05439 12.8946 6.56144C12.7919 6.82998 11.4843 6.61124 11.2407 6.61124C11.1669 6.61124 10.7406 6.64873 11.0107 6.60626C11.3268 6.55655 11.5377 6.56068 11.8776 6.66105C12.3112 6.78907 12.9551 6.97058 13.2914 7.47286C13.4649 7.73192 13.5696 8.10939 13.8016 8.2249" stroke="#6AFCC7" stroke-width="0.5" stroke-linecap="round"/>
<path d="M3.5 7C2.99988 7 3.25274 6.44602 3.99965 6" stroke="#6AFCC7" stroke-width="0.5" stroke-linecap="round"/>
<path d="M8.84465 1.1582C7.02647 0.847122 5.413 1.00049 3.68355 1.56819C3.21234 1.72286 2.67115 2.04288 2.25951 2.28392C2.10361 2.37521 2.05017 2.55604 1.96607 2.68696C1.8593 2.85316 1.67615 2.97623 1.57769 3.14559C1.31435 3.59855 1.23491 4.05447 1.09438 4.53537C1.05548 4.66847 0.913268 4.98133 1.07712 4.94535C1.63757 4.82228 2.175 4.57933 2.73419 4.43808C2.98828 4.3739 2.88829 4.48223 2.94995 4.61875C3.00032 4.73027 3.64779 4.63404 3.83028 4.75426C4.2339 5.02015 4.80478 4.77823 5.22843 4.97315C5.73484 5.20614 6.28381 3.8524 6.55323 3.63548C7.17659 3.13358 8.35786 3.47937 8.72382 2.7217C8.84221 2.47659 8.76697 2.14016 8.76697 1.88089C8.76697 1.63868 8.89155 1.50158 9 1.28328" stroke="#6AFCC7" stroke-width="0.5" stroke-linecap="round"/>
<path d="M9.09864 1.27008C8.58204 1.27008 10.3388 1.00057 10.5321 1.00057C11.0416 1.00057 11.5381 0.974804 11.9908 1.27008C12.5218 1.61634 13.043 1.87618 13.5462 2.2828C14.0523 2.69178 14.2037 3.52295 14.5387 4.11222C15.0113 4.94354 14.995 6.05795 14.995 7.02786C14.995 7.37252 15.0451 7.73415 14.8285 7.99974C14.8207 8.00922 14.6844 7.75579 14.6753 7.74248C14.4525 7.41815 14.2482 6.9767 13.9892 6.70118C13.6415 6.33138 13.4007 7.34356 13.0666 6.93394C12.8877 6.71455 12.7779 6.43472 12.6103 6.21115C12.4839 6.04246 12.1194 6.18457 11.9742 6.2234C11.7348 6.28745 11.5329 6.47632 11.4047 6.13765C11.3677 6.04007 11.1833 5.21924 11.0849 5.3332C10.8035 5.65902 10.7464 6.35345 10.3788 5.76197C10.0738 5.27107 10.1041 5.11677 9.59284 5.11677C9.20653 5.11677 9.38289 4.49891 9.43297 4.16122C9.48268 3.826 9.53955 3.54833 9.53955 3.20568C9.53955 2.81033 9.28476 2.76874 9 2.69115" stroke="#6AFCC7" stroke-width="0.5" stroke-linecap="round"/>
<path d="M13.3289 9.71316C14.0164 9.15564 14.4896 8.86515 15.4309 9.06116C16.2227 9.22601 17.0361 10.4056 16.9988 11.0912C16.9035 12.8384 13.5063 13.2755 12 12.8472" stroke="#6AFCC7" stroke-width="0.5" stroke-linecap="round"/>
<path d="M12 13C11.97 13.7097 11.6482 14.2148 11.3765 14.8292C11.1752 15.2844 10.8389 15.8351 10.4914 16.1516C9.95892 16.6368 9.2561 16.681 8.61402 16.8326C8.10866 16.952 7.60777 17.0268 7.09199 16.991C6.79634 16.9705 6.46313 16.6087 6.22034 16.4209C5.62284 15.9585 5.88482 15.6817 5.5 15" stroke="#6AFCC7" stroke-width="0.5" stroke-linecap="round"/>
<path d="M9.99951 14.0001C9.65793 14.1709 9.25462 14.3725 8.72 14.6398C8.56776 14.7159 7.38593 14.8068 7.99957 14.5" stroke="#6AFCC7" stroke-width="0.5" stroke-linecap="round"/>
<path d="M7 10C7.33877 10 7.67846 10 8.01709 10C8.31207 10 8.88623 10 9 10" stroke="#6AFCC7" stroke-width="0.5" stroke-linecap="round"/>
<path d="M8 10H9" stroke="#6AFCC7" stroke-width="0.5" stroke-linecap="round"/>
<path d="M14 9C14.475 9 14.6792 9 15 9" stroke="#6AFCC7" stroke-width="0.5" stroke-linecap="round"/>
<path d="M4.27539 12.3186C4.29533 12.97 4.7198 13.4305 4.97714 13.9967C5.04872 14.1541 5.16663 14.2834 5.23996 14.4374C5.27253 14.5058 5.30624 14.5707 5.35014 14.6325C5.38433 14.6806 5.37488 14.7678 5.39349 14.8257C5.42128 14.9122 5.4457 14.9877 5.49464 15.066" stroke="#6AFCC7" stroke-width="0.5" stroke-linecap="round"/>
<path d="M6.64904 11.9771C6.3404 12.4078 6.29371 12.9535 6.29139 13.4691C6.29102 13.5523 6.23387 13.8119 6.35281 13.8141C6.59695 13.8185 6.84393 13.822 7.08797 13.8141C7.18078 13.8111 7.26393 13.7799 7.35169 13.7527C7.47439 13.7146 7.59852 13.6944 7.72379 13.6678C7.99897 13.6093 8.07987 13.3509 8.12479 13.097C8.17858 12.793 8.17976 12.4661 8.17717 12.1577C8.17413 11.7962 8.11232 11.4311 8.07421 11.0721C8.04204 10.7692 7.99764 10.473 7.94958 10.1726" stroke="#6AFCC7" stroke-width="0.5" stroke-linecap="round"/>
</svg>
