<svg width="52" height="52" viewBox="0 0 52 52" fill="none" xmlns="http://www.w3.org/2000/svg">
<g clip-path="url(#clip0_238_3188)">
<path d="M16 26H36ZM26 36V16ZM50 26C50 39.2548 39.2548 50 26 50C12.7452 50 2 39.2548 2 26C2 12.7452 12.7452 2 26 2C39.2548 2 50 12.7452 50 26Z" fill="white"/>
<path d="M16 26H36M26 36V16M50 26C50 39.2548 39.2548 50 26 50C12.7452 50 2 39.2548 2 26C2 12.7452 12.7452 2 26 2C39.2548 2 50 12.7452 50 26Z" stroke="#E931CC" stroke-width="4" stroke-linecap="round"/>
</g>
<defs>
<clipPath id="clip0_238_3188">
<rect width="52" height="52" fill="white"/>
</clipPath>
</defs>
</svg>
