<svg width="85" height="43" viewBox="0 0 85 43" fill="none" xmlns="http://www.w3.org/2000/svg">
<path d="M83.129 40.4644C81.9307 41.4945 80.3056 42.0732 78.6111 42.0732C76.9166 42.0732 75.2915 41.4945 74.0932 40.4644L42.4614 13.2638L10.8296 40.4644C9.62443 41.4653 8.01023 42.0192 6.33473 42.0067C4.65923 41.9942 3.05647 41.4163 1.87166 40.3974C0.686852 39.3786 0.0148087 38.0004 0.000244141 36.5596C-0.0143127 35.1188 0.629791 33.7307 1.79382 32.6943L37.9435 1.60873C39.1419 0.578568 40.767 -0.000148773 42.4614 -0.000148773C44.1559 -0.000148773 45.781 0.578568 46.9793 1.60873L83.129 32.6943C84.327 33.7248 85 35.1223 85 36.5793C85 38.0364 84.327 39.4339 83.129 40.4644Z" fill="white"/>
</svg>
